<svg xmlns="http://www.w3.org/2000/svg" xmlns:xlink="http://www.w3.org/1999/xlink" version="1.1" id="Layer_1" x="0px" y="0px" viewBox="0 0 512 512" style="enable-background:new 0 0 512 512;" xml:space="preserve">
<style type="text/css">
	.st0{fill:#00703C;}
</style>
<g id="XMLID_1_">
	<path id="XMLID_5_" class="st0" d="M401.18,252.35v0.98c0,61.72,45.73,113.06,110.82,113.06v79.82   c-60.46,0-112.08-24.97-147.01-64.81l24.83,58.49h-89.78l-29.32-76.17H116.99L87.67,439.9H0l32.54-76.45   c85.29-38.15,180.81-70.28,284.34-95.11c-0.28-3.79-0.28-7.43-0.28-11.22V256c0-104.64,81.92-190.21,195.4-190.21v74.63   C446.91,140.41,401.18,190.77,401.18,252.35z M304.39,238.89c-24.27,3.23-50.22,7.01-77.29,11.36l-33.24-86.27l-38.01,98.61   c-29.32,5.47-59.06,11.36-88.09,17.96l89.78-211.11h74.63L304.39,238.89z"/>
</g>
</svg>