<svg xmlns:dc="http://purl.org/dc/elements/1.1/" xmlns:cc="http://creativecommons.org/ns#" xmlns:rdf="http://www.w3.org/1999/02/22-rdf-syntax-ns#" xmlns:svg="http://www.w3.org/2000/svg" xmlns="http://www.w3.org/2000/svg" xmlns:xlink="http://www.w3.org/1999/xlink" xmlns:sodipodi="http://sodipodi.sourceforge.net/DTD/sodipodi-0.dtd" xmlns:inkscape="http://www.inkscape.org/namespaces/inkscape" version="1.1" id="Logo" x="0px" y="0px" viewBox="0 0 1000.0001 966.55883" xml:space="preserve" sodipodi:docname="Warner_Bros._Discovery_(2022)_symbol.svg" inkscape:version="0.92.5 (2060ec1f9f, 2020-04-08)" width="1000.0001" height="966.55884"><metadata id="metadata26"><rdf:RDF><cc:Work rdf:about=""><dc:format>image/svg+xml</dc:format><dc:type rdf:resource="http://purl.org/dc/dcmitype/StillImage"/></cc:Work></rdf:RDF></metadata><defs id="defs89"><linearGradient inkscape:collect="always" id="linearGradient868"><stop style="stop-color:#4047ff;stop-opacity:1;" offset="0" id="stop864"/><stop style="stop-color:#04006c;stop-opacity:1" offset="1" id="stop866"/></linearGradient><linearGradient y2="44.471802" x2="86.786201" y1="44.471802" x1="5.9299998" gradientUnits="userSpaceOnUse" id="SVGID_1_" gradientTransform="scale(10.787487)">
		<stop id="stop50" style="stop-color:#4047FF" offset="0"/>
		<stop id="stop52" style="stop-color:#04006C" offset="1"/>
	</linearGradient><linearGradient inkscape:collect="always" xlink:href="#linearGradient868" id="linearGradient870" x1="63.646173" y1="479.5038" x2="936.35387" y2="479.5038" gradientUnits="userSpaceOnUse"/></defs><sodipodi:namedview id="namedview87" pagecolor="#ffffff" bordercolor="#666666" borderopacity="1.0" inkscape:pageshadow="2" inkscape:pageopacity="0.0" inkscape:pagecheckerboard="0" showgrid="false" inkscape:zoom="0.5" inkscape:cx="316.91587" inkscape:cy="447.89148" inkscape:window-width="1920" inkscape:window-height="1009" inkscape:window-x="-8" inkscape:window-y="-8" inkscape:window-maximized="1" inkscape:current-layer="Logo"/>
<style type="text/css" id="style2">
	.st0{fill:#000000;}
	.st1{fill:url(#SVGID_1_);}
	.st2{fill:url(#SVGID_00000169555173584406524360000005128519780672797365_);}
	.st3{fill:url(#SVGID_00000044176987979392460670000010302513304821388181_);}
	.st4{fill:url(#SVGID_00000101105293416761718930000005593445796951765936_);}
</style>

<path inkscape:connector-curvature="0" style="fill:url(#linearGradient870);stroke-width:10.78748703;fill-opacity:1" id="path55" d="M 936.35387,314.99462 C 929.88138,360.30207 908.30641,509.16939 799.35279,654.80046 689.32042,804.74653 543.68934,878.10144 500.5394,899.67642 456.3107,877.02269 311.75837,804.74653 200.64726,654.80046 91.69364,509.16939 70.118666,360.30207 63.646173,314.99462 l 65.803667,-35.59871 v -49.62244 l 65.80367,-35.5987 v -48.5437 C 285.86841,102.48113 385.11329,74.43366 500.5394,59.331178 614.88676,74.43366 715.21039,102.48113 805.82528,145.63107 v 48.5437 l 65.80367,35.5987 v 49.62244 z" class="st1"/><path style="fill:#ffc200;stroke-width:10.78748703;fill-opacity:1" d="m 928.80263,244.87595 v -48.54369 l -65.80367,-35.5987 V 110.03237 L 830.6365,92.772388 C 735.70661,47.464943 629.98924,17.259979 508.09064,1.0787487 L 500.5394,0 492.98816,1.0787487 C 371.08955,17.259979 266.45093,47.464943 170.44229,92.772388 l -33.44121,16.181232 v 50.70119 l -65.803666,35.5987 v 48.5437 L 0,282.63216 5.3937435,323.62461 C 23.732471,459.54695 73.354912,583.60305 153.18232,690.39917 c 79.8274,107.87487 187.70227,196.33226 320.38836,263.21468 l 25.88997,12.94499 25.88997,-12.94499 C 659.11546,886.73143 766.99033,798.27404 846.81773,689.32042 925.56638,582.5243 975.18882,458.4682 994.6063,322.54586 L 1000,281.55341 Z m 7.55124,70.11867 C 929.88138,360.30207 908.30641,509.16939 799.35279,654.80046 689.32042,804.74653 543.68934,878.10144 500.5394,899.67642 456.3107,877.02269 311.75837,804.74653 200.64726,654.80046 91.69364,509.16939 70.118666,360.30207 63.646173,314.99462 l 65.803667,-35.59871 v -49.62244 l 65.80367,-35.5987 v -48.5437 C 285.86841,102.48113 385.11329,74.43366 500.5394,59.331178 614.88676,74.43366 715.21039,102.48113 805.82528,145.63107 v 48.5437 l 65.80367,35.5987 v 49.62244 z" id="path62" inkscape:connector-curvature="0"/><path style="fill:#ffc200;stroke-width:10.78748703;fill-opacity:1" d="m 402.37327,177.99354 3.23624,399.13701 -3.23624,2.1575 C 360.30207,472.49193 334.4121,338.72709 326.86086,206.041 c -20.49623,9.70874 -43.14995,20.49623 -65.80367,35.59871 8.62999,120.81985 30.20496,227.61597 66.88241,327.9396 l -21.57497,11.86624 C 250.2697,503.77564 213.59224,407.76701 188.78102,295.57714 c -17.25998,15.10249 -34.51996,32.36246 -50.70119,51.77994 32.36246,135.92234 84.1424,238.40346 159.65481,321.46711 l 58.25243,-34.51995 c 28.04747,59.33117 67.96117,117.5836 112.18987,163.9698 V 166.1273 c -21.57498,2.1575 -43.14995,5.39374 -65.80367,11.86624 z" id="path71" inkscape:connector-curvature="0"/><path style="fill:#ffc200;stroke-width:10.78748703;fill-opacity:1" d="m 775.62032,382.95579 c 23.73247,-25.88997 29.12621,-45.30745 29.12621,-67.96117 0,-32.36246 -26.96872,-61.48868 -65.80367,-86.2999 -23.73247,-15.10248 -60.40993,-33.44121 -113.26861,-48.54369 -30.20497,-8.62999 -62.56743,-12.94498 -94.92989,-14.02373 V 798.27404 C 663.43045,730.31287 820.92776,542.6106 822.00651,447.68071 823.08526,417.47575 806.90403,398.05827 775.62032,382.95579 Z M 596.54803,241.63971 c 32.36246,0 138.07983,33.44121 138.07983,75.51241 0,15.10248 -12.94498,36.67745 -55.01618,59.33118 l -83.06365,44.22869 z m 81.9849,349.51458 c -18.33873,21.57497 -49.62244,53.93743 -81.9849,79.8274 V 490.83066 c 0,0 119.74111,-67.96117 124.0561,-70.11867 35.59871,8.62999 34.51996,35.59871 34.51996,37.75621 0,33.44121 -34.51996,84.1424 -76.59116,132.68609 z" id="path80" inkscape:connector-curvature="0"/>
</svg>